<svg xmlns="http://www.w3.org/2000/svg" enable-background="new 0 0 512 512" viewBox="0 0 512 512" id="hospital">
  <g>
    <g>
      <g>
        <path fill="#dc5461" d="M101.396 220.438H51.523c-5.868 0-10.625 4.757-10.625 10.625v39.899c0 5.868 4.757 10.625 10.625 10.625h49.873c5.868 0 10.625-4.757 10.625-10.625v-39.899C112.021 225.196 107.263 220.438 101.396 220.438zM90.771 260.337H62.148v-18.649h28.623V260.337zM101.396 310.209H51.523c-5.868 0-10.625 4.757-10.625 10.625v39.898c0 5.868 4.757 10.625 10.625 10.625h49.873c5.868 0 10.625-4.757 10.625-10.625v-39.898C112.021 314.967 107.263 310.209 101.396 310.209zM90.771 350.107H62.148v-18.648h28.623V350.107zM101.396 399.979H51.523c-5.868 0-10.625 4.757-10.625 10.625v39.899c0 5.868 4.757 10.625 10.625 10.625h49.873c5.868 0 10.625-4.757 10.625-10.625v-39.899C112.021 404.737 107.263 399.979 101.396 399.979zM90.771 439.878H62.148v-18.649h28.623V439.878zM460.477 220.438h-49.873c-5.868 0-10.625 4.757-10.625 10.625v39.899c0 5.868 4.757 10.625 10.625 10.625h49.873c5.868 0 10.625-4.757 10.625-10.625v-39.899C471.102 225.196 466.345 220.438 460.477 220.438zM449.852 260.337h-28.623v-18.649h28.623V260.337zM460.477 310.209h-49.873c-5.868 0-10.625 4.757-10.625 10.625v39.898c0 5.868 4.757 10.625 10.625 10.625h49.873c5.868 0 10.625-4.757 10.625-10.625v-39.898C471.102 314.967 466.345 310.209 460.477 310.209zM449.852 350.107h-28.623v-18.648h28.623V350.107zM460.477 399.979h-49.873c-5.868 0-10.625 4.757-10.625 10.625v39.899c0 5.868 4.757 10.625 10.625 10.625h49.873c5.868 0 10.625-4.757 10.625-10.625v-39.899C471.102 404.737 466.345 399.979 460.477 399.979zM449.852 439.878h-28.623v-18.649h28.623V439.878z"></path>
        <path fill="#283954" d="M500.375,278.323c5.868,0,10.625-4.757,10.625-10.625v-76.531c0-4.396-2.707-8.338-6.811-9.916
				l-122.858-47.255V71.472c0-5.868-4.757-10.625-10.625-10.625h-54.86c-5.868,0-10.625,4.757-10.625,10.625
				c0,5.868,4.757,10.625,10.625,10.625h44.235V489.75h-28.623V330.811c0-5.868-4.757-10.625-10.625-10.625
				c-80.622-0.003-47.947-0.003-129.666,0c-5.868,0-10.625,4.757-10.625,10.625v87.497c0,5.867,4.757,10.625,10.625,10.625
				c5.868,0,10.625-4.758,10.625-10.625v-76.872h43.583V489.75h-43.583v-28.943c0-5.868-4.757-10.625-10.625-10.625
				c-5.868,0-10.625,4.757-10.625,10.625v28.943h-28.623V82.097h44.235c5.868,0,10.625-4.757,10.625-10.625
				c0-5.868-4.757-10.625-10.625-10.625h-54.86c-5.868,0-10.625,4.757-10.625,10.625v62.524L7.811,181.251
				C3.707,182.829,1,186.77,1,191.167v58.543c0,5.868,4.757,10.625,10.625,10.625s10.625-4.757,10.625-10.625v-51.246
				l108.419-41.702V489.75H22.25V292.21c0-5.868-4.757-10.625-10.625-10.625S1,286.342,1,292.21v208.165
				C1,506.243,5.757,511,11.625,511c13.128,0,475.701,0,488.75,0c5.868,0,10.625-4.757,10.625-10.625V310.198
				c0-5.868-4.757-10.625-10.625-10.625s-10.625,4.757-10.625,10.625V489.75H381.331V156.762l108.419,41.702v69.234
				C489.75,273.565,494.507,278.323,500.375,278.323z M266.625,489.75V341.436h43.583V489.75H266.625z"></path>
        <path fill="#283954" d="M170.566 171.217v39.898c0 5.868 4.757 10.625 10.625 10.625h49.872c5.868 0 10.625-4.757 10.625-10.625v-39.898c0-5.868-4.757-10.625-10.625-10.625h-49.872C175.324 160.592 170.566 165.349 170.566 171.217zM191.816 181.842h28.622v18.648h-28.622V181.842zM231.063 240.387h-49.872c-5.868 0-10.625 4.757-10.625 10.625v39.899c0 5.868 4.757 10.625 10.625 10.625h49.872c5.868 0 10.625-4.757 10.625-10.625v-39.899C241.688 245.145 236.931 240.387 231.063 240.387zM220.438 280.286h-28.622v-18.649h28.622V280.286zM280.937 221.74h49.872c5.868 0 10.625-4.757 10.625-10.625v-39.898c0-5.868-4.757-10.625-10.625-10.625h-49.872c-5.868 0-10.625 4.757-10.625 10.625v39.898C270.312 216.982 275.069 221.74 280.937 221.74zM291.562 181.842h28.622v18.648h-28.622V181.842zM280.937 301.536h49.872c5.868 0 10.625-4.757 10.625-10.625v-39.899c0-5.868-4.757-10.625-10.625-10.625h-49.872c-5.868 0-10.625 4.757-10.625 10.625v39.899C270.312 296.779 275.069 301.536 280.937 301.536zM291.562 261.637h28.622v18.649h-28.622V261.637z"></path>
        <path fill="#dc5461" d="M256,1c-38.858,0-70.472,31.613-70.472,70.472c0,38.859,31.614,70.473,70.472,70.473
				s70.472-31.614,70.472-70.473C326.472,32.613,294.858,1,256,1z M256,120.694c-27.14,0-49.222-22.081-49.222-49.222
				c0-27.141,22.081-49.222,49.222-49.222s49.222,22.081,49.222,49.222C305.222,98.613,283.14,120.694,256,120.694z"></path>
        <path fill="#dc5461" d="M275.949,60.847h-9.324v-9.324c0-5.868-4.757-10.625-10.625-10.625s-10.625,4.757-10.625,10.625
				v9.324h-9.324c-5.868,0-10.625,4.757-10.625,10.625c0,5.868,4.757,10.625,10.625,10.625h9.324v9.325
				c0,5.868,4.757,10.625,10.625,10.625s10.625-4.757,10.625-10.625v-9.325h9.324c5.868,0,10.625-4.757,10.625-10.625
				C286.574,65.604,281.816,60.847,275.949,60.847z"></path>
      </g>
    </g>
  </g>
</svg>
